<?xml version="1.0" encoding="utf-8"?>
<!-- Generator: Adobe Illustrator 15.0.0, SVG Export Plug-In  -->
<!DOCTYPE svg PUBLIC "-//W3C//DTD SVG 1.1//EN" "http://www.w3.org/Graphics/SVG/1.1/DTD/svg11.dtd" [
	<!ENTITY ns_flows "http://ns.adobe.com/Flows/1.0/">
]>
<svg version="1.1"
	 xmlns="http://www.w3.org/2000/svg" xmlns:xlink="http://www.w3.org/1999/xlink" xmlns:a="http://ns.adobe.com/AdobeSVGViewerExtensions/3.0/"
	 x="0px" y="0px" width="32px" height="32px" viewBox="-7 -4 32 32" enable-background="new -7 -4 32 32" xml:space="preserve">
<defs>
</defs>
<path id="Play_Button_1_" fill="#FFFFFF" d="M19.396,17.401c-0.525-0.934-1.369-1.642-2.344-2.029
	c-0.449-0.177-0.934-0.281-1.435-0.31c-0.083-0.006-0.168-0.006-0.252-0.006c-0.709,0-1.412,0.168-2.044,0.483
	c-0.077,0.035-0.146,0.078-0.223,0.121c-1.448,0.822-2.275,2.303-2.338,3.841c-0.016,0.409,0.02,0.821,0.112,1.229
	c0.097,0.422,0.259,0.844,0.483,1.237c0.022,0.035,0.034,0.063,0.054,0.097c0.838,1.391,2.34,2.241,3.977,2.241
	c0.788,0,1.58-0.211,2.268-0.597c1.075-0.612,1.848-1.602,2.171-2.789C20.163,19.734,20.007,18.476,19.396,17.401z M17.431,19.881
	c0,0-0.149,0.106-0.379,0.273c-0.725,0.533-2.283,1.666-2.459,1.792c-0.099,0.069-0.174,0.119-0.246,0.147
	c-0.189,0.084-0.295,0.049-0.351-0.021c-0.07-0.069-0.07-0.197-0.07-0.197s0-0.504,0-1.158v-3.083c0-0.233,0.042-0.633,0.561-0.26
	c0.196,0.14,0.647,0.456,1.13,0.808c0.521,0.372,1.076,0.779,1.435,1.045c0.195,0.148,0.335,0.253,0.379,0.295
	C17.64,19.705,17.431,19.881,17.431,19.881z"/>
<path fill="#FFFFFF" d="M12.09,0C11.159,0,1.923,0,1.923,0C0,0,0,1.784,0,1.784v19.614c0,1.644,1.77,1.484,1.77,1.484
	s4.758,0,8.851,0c-0.252-0.379-0.549-0.798-0.549-1.25l-8.354,0.012c-0.427,0-0.459-0.625-0.459-0.625L1.244,2.143
	c0-0.945,0.819-0.911,0.819-0.911h8.585c0.56,1.909-0.206,5.583-0.206,5.583s5.776-0.026,5.836-0.013l-0.033,7.383
	c0.485,0.074,0.833,0.213,1.252,0.434V5.451L12.09,0z M11.662,5.86c0.19-0.756,0.604-2.673,0-4.611l4.546,4.611H11.662z"/>
</svg>
