<?xml version="1.0" encoding="utf-8"?>
<!-- Generator: Adobe Illustrator 15.0.0, SVG Export Plug-In  -->
<!DOCTYPE svg PUBLIC "-//W3C//DTD SVG 1.1//EN" "http://www.w3.org/Graphics/SVG/1.1/DTD/svg11.dtd" [
	<!ENTITY ns_flows "http://ns.adobe.com/Flows/1.0/">
]>
<svg version="1.1"
	 xmlns="http://www.w3.org/2000/svg" xmlns:xlink="http://www.w3.org/1999/xlink" xmlns:a="http://ns.adobe.com/AdobeSVGViewerExtensions/3.0/"
	 x="0px" y="0px" width="64px" height="64px" viewBox="-10 -19 64 64" enable-background="new -10 -19 64 64" xml:space="preserve">
<defs>
</defs>
<path id="Computer_Bottom_3_" fill="#FFFFFF" d="M22.104,22.678H0.073c0,0-0.873,4.594,3.423,5.167c4.295,0.574,20.23,0,20.23,0
	V23.8"/>
<path id="Computer_Top_2_" fill="#FFFFFF" d="M4.129,21.799V3.262c0,0,0.254-3.032,3.604-3.191c3.35-0.159,25.621,0,25.621,0
	s2.586-0.29,3.318,2.647v11.146l-2.098-0.788l-0.038-9.688c0,0-0.288-1.054-1.086-1.116H7.992c0,0-1.691-0.35-1.531,1.628v17.899
	H4.129z"/>
<path id="Hat_Bottom_3_" fill="#FFFFFF" d="M42.179,23.698l-8.515,4.295l-8.435-3.806v5.17c0,0,7.631,7.402,17.732-0.508
	l-0.098-4.251L42.179,23.698z"/>
<path id="Hat_Top_3_" fill="#FFFFFF" d="M46.429,26.348c-0.284-0.632-1.188-2.438-2.553-4.351l4.606-2.222l-14.842-6.193
	l-14.778,6.78l14.77,6.682l8.451-4.127l-6.516-3.284l0.849-0.433l5.767,2.883c1.445,1.289,2.18,2.856,3.297,4.848
	c0,0-0.557,3.273,1.802,2.07C49.687,27.773,46.429,26.348,46.429,26.348z"/>
</svg>
