<?xml version="1.0" encoding="utf-8"?>
<!-- Generator: Adobe Illustrator 15.0.0, SVG Export Plug-In  -->
<!DOCTYPE svg PUBLIC "-//W3C//DTD SVG 1.1//EN" "http://www.w3.org/Graphics/SVG/1.1/DTD/svg11.dtd" [
	<!ENTITY ns_flows "http://ns.adobe.com/Flows/1.0/">
]>
<svg version="1.1"
	 xmlns="http://www.w3.org/2000/svg" xmlns:xlink="http://www.w3.org/1999/xlink" xmlns:a="http://ns.adobe.com/AdobeSVGViewerExtensions/3.0/"
	 x="0px" y="0px" width="32px" height="32px" viewBox="-7 -4 32 32" enable-background="new -7 -4 32 32" xml:space="preserve">
<defs>
</defs>
<path id="Magnify_2_" fill="#FFFFFF" stroke="#FFFFFF" stroke-miterlimit="10" d="M9.609,20.85c1.569,0.61,3.241,0.488,4.646-0.203
	l2.472,3.571c0.135,0.193,0.429,0.146,0.683-0.041c0.132-0.098,0.484-0.309,0.256-0.637l-2.423-3.509
	c0.807-0.621,1.462-1.465,1.855-2.479c1.159-2.977-0.32-6.331-3.304-7.489c-2.979-1.154-6.327,0.321-7.487,3.305
	C5.154,16.349,6.631,19.695,9.609,20.85z M6.988,13.643c1-2.589,3.921-3.869,6.502-2.875c2.597,1.01,3.878,3.924,2.875,6.518
	c-0.245,0.635-0.606,1.192-1.052,1.655c-1.362,1.421-3.506,1.967-5.458,1.21c-0.252-0.098-0.494-0.213-0.72-0.347
	C7.036,18.585,6.081,15.978,6.988,13.643z"/>
<path fill="#FFFFFF" d="M12.437,0C11.479,0,1.979,0,1.979,0C0,0,0,1.835,0,1.835v20.174c0,1.691,1.821,1.527,1.821,1.527
	s3.516,0,7.725,0c-0.26-0.391-0.84-0.821-0.84-1.286l-6.939,0.013c-0.438,0-0.474-0.644-0.474-0.644L1.28,2.205
	c0-0.973,0.843-0.937,0.843-0.937h8.829c0.576,1.964-0.21,5.742-0.21,5.742s5.939-0.027,6.001-0.013L16.71,9.353
	c0.498,0.076,0.857,0.496,1.288,0.721V5.606L12.437,0z M11.994,6.027c0.196-0.779,0.622-2.749,0-4.743l4.676,4.743H11.994z"/>
</svg>
