<?xml version="1.0" encoding="utf-8"?>
<!-- Generator: Adobe Illustrator 15.0.0, SVG Export Plug-In  -->
<!DOCTYPE svg PUBLIC "-//W3C//DTD SVG 1.1//EN" "http://www.w3.org/Graphics/SVG/1.1/DTD/svg11.dtd" [
	<!ENTITY ns_flows "http://ns.adobe.com/Flows/1.0/">
]>
<svg version="1.1"
	 xmlns="http://www.w3.org/2000/svg" xmlns:xlink="http://www.w3.org/1999/xlink" xmlns:a="http://ns.adobe.com/AdobeSVGViewerExtensions/3.0/"
	 x="0px" y="0px" width="182px" height="75px" viewBox="-2 -2 182 75" enable-background="new -2 -2 182 75" xml:space="preserve">
<defs>
</defs>
<path fill-rule="evenodd" clip-rule="evenodd" fill="#993333" d="M34.388,68.135l-7.775-0.196
	c-1.386-4.607,0.209-15.384,0.98-20.548c-0.507-0.484-3.908-3.457-4.412-2.391l-2.04,4.675l-0.776-1.216
	c-0.112-0.174-0.27-0.455-0.657-0.355l-6.528,2.446l0.257-1.447c0.061-0.222-0.038-0.267-0.292-0.334l-3.595-0.857l2.17-2.167
	c0.219-0.214,0.188-0.409,0.114-0.494l-1.16-1.262l3.956-0.777c0.385-0.096,0.402-0.49-0.032-0.651l-5.671-2.127l1.696-0.959
	c0.344-0.269,0.188-0.547,0.097-0.729l-2.118-3.432l4.035,0.21c0.203-0.001,0.52,0.004,0.587-0.427l0.032-1.943l4.584,3.965
	c0.352,0.308,0.675,0.107,0.582-0.284l-1.205-3.842l1.668,0.414c0.105,0.027,0.287-0.051,0.378-0.332l0.865-2.948l2.463,2.75
	c0.188,0.193,0.264,0.256,0.437,0.101l1.148-0.923l0.974,6.914c0.084,0.377,0.415,0.39,0.616,0.407l1.434,0.095L24.073,43.5
	c-0.212,0.288-0.179,0.454,0.083,0.594c1.222,0.457,2.435,1.078,3.642,1.89c1.351-9.192,2.424-18.159-3.245-21.597
	c-1.437-0.676-2.71-0.598-3.835,0.792l-3.804,5.773l-0.529-2.825c-0.101-0.297-0.276-0.785-0.89-0.741L4.75,29.132L5.589,27
	c0.15-0.329,0.024-0.423-0.356-0.613L0,23.985l3.994-2.655c0.379-0.258,0.413-0.562,0.319-0.718l-1.382-2.293l6.283,0.022
	c0.629-0.033,0.766-0.62,0.147-1.005L1.336,12.35l2.887-0.952c0.61-0.31,0.454-0.772,0.36-1.084L2.408,4.419l6.093,1.548
	C8.82,6.032,9.289,6.136,9.538,5.5l0.651-2.965l5.79,7.461c0.436,0.58,1.02,0.374,0.986-0.248l-0.669-6.251l2.419,1.137
	c0.165,0.08,0.458,0.016,0.685-0.387L21.615,0l2.934,4.958c0.227,0.354,0.339,0.471,0.651,0.29l2.035-1.059l-1.278,11.518
	c0.022,0.608,0.522,0.736,0.835,0.815l2.175,0.58l-5.834,5.441c4.597,1.38,6.647,4.384,7.51,8.264
	c0.832-0.802,1.746-1.433,2.731-1.943c0.232-0.176,0.244-0.345-0.007-0.607l-3.734-3.614l1.441-0.298
	c0.203-0.042,0.534-0.107,0.567-0.499l-0.012-7.098l1.278,0.764c0.195,0.134,0.275,0.059,0.438-0.166l2.089-3.12l1.288,2.846
	c0.13,0.271,0.322,0.325,0.438,0.277l1.61-0.648l-0.663,4.039c-0.045,0.405,0.321,0.563,0.633,0.2l4.038-4.646l0.315,1.955
	c0.138,0.419,0.443,0.371,0.661,0.345l4.019-0.795l-1.638,3.765c-0.067,0.195-0.188,0.488,0.195,0.714l1.845,0.722l-5.399,2.954
	c-0.416,0.228-0.348,0.616,0.056,0.661l4.094,0.213l-0.985,1.441c-0.063,0.097-0.056,0.296,0.178,0.477l2.511,1.874l-3.501,1.376
	c-0.249,0.109-0.331,0.167-0.253,0.383l0.475,1.414l-6.931-1.526c-0.39-0.05-0.524,0.261-0.612,0.451l-0.595,1.331l-2.736-4.406
	c-0.2-0.311-0.368-0.333-0.587-0.14c-1.129,0.719-2.113,1.625-2.984,2.703C32.209,41.057,28.771,59.646,34.388,68.135z"/>
<path fill-rule="evenodd" clip-rule="evenodd" fill="#993333" d="M14.742,71c10.804-6.73,19.377,3.549,32.241-2.928
	C34.685,70.347,24.829,59.651,14.742,71z"/>
<path fill-rule="evenodd" clip-rule="evenodd" fill="#993333" d="M49.544,54.716c1.466,0,3.214-0.163,4.142-0.529
	c0.388-0.162,0.474-0.275,0.592-0.669c0.227-0.781,0.507-2.782,0.507-3.056c0-0.183-0.041-0.346-0.204-0.346
	c-0.183,0-0.238,0.092-0.303,0.458c-0.084,0.416-0.388,1.084-0.775,1.521c-0.929,1.057-2.168,1.289-4.217,1.289
	c-3.073,0-7.235-2.719-7.235-8.185c0-2.233,0.432-4.417,2.113-5.958c1.014-0.923,2.317-1.423,4.324-1.423
	c2.113,0,3.903,0.62,4.67,1.423c0.57,0.599,0.874,1.401,0.896,2.113c0,0.324,0.041,0.507,0.225,0.507
	c0.205,0,0.26-0.183,0.282-0.528c0.043-0.458,0.021-1.725,0.063-2.48c0.043-0.81,0.12-1.084,0.12-1.267
	c0-0.142-0.1-0.254-0.346-0.275c-0.69-0.07-1.424-0.274-2.297-0.394c-1.068-0.135-1.909-0.226-3.344-0.226
	c-3.418,0-5.607,0.916-7.257,2.437c-2.211,2.022-2.695,4.733-2.695,6.297c0,2.232,0.604,4.804,2.857,6.783
	C43.755,54.025,46.396,54.716,49.544,54.716L49.544,54.716z M65.752,48.391h-5.121c-0.119,0-0.163,0.048-0.218,0.183l-1.239,3.29
	c-0.227,0.577-0.346,1.126-0.346,1.401c0,0.416,0.205,0.711,0.929,0.711h0.346c0.268,0,0.345,0.049,0.345,0.19
	c0,0.183-0.141,0.225-0.401,0.225c-0.731,0-1.724-0.07-2.436-0.07c-0.248,0-1.51,0.07-2.707,0.07c-0.301,0-0.443-0.042-0.443-0.225
	c0-0.141,0.1-0.19,0.283-0.19c0.203,0,0.527-0.021,0.71-0.042c1.057-0.141,1.488-0.923,1.952-2.07l5.769-14.44
	c0.281-0.669,0.422-0.916,0.648-0.916c0.204,0,0.344,0.204,0.57,0.733c0.55,1.268,4.238,10.642,5.705,14.125
	c0.874,2.063,1.543,2.384,2.027,2.518c0.346,0.07,0.69,0.091,0.959,0.091c0.184,0,0.302,0.028,0.302,0.19
	c0,0.183-0.203,0.225-1.055,0.225c-0.832,0-2.515,0-4.348-0.042c-0.41-0.028-0.688-0.028-0.688-0.183
	c0-0.141,0.084-0.19,0.323-0.211c0.161-0.042,0.324-0.254,0.204-0.528l-1.846-4.874C65.936,48.439,65.872,48.391,65.752,48.391
	L65.752,48.391z M61.082,47.243h4.239c0.105,0,0.128-0.07,0.105-0.141l-2.069-5.677c-0.021-0.091-0.043-0.204-0.107-0.204
	c-0.076,0-0.12,0.113-0.14,0.204l-2.113,5.657C60.976,47.172,60.997,47.243,61.082,47.243L61.082,47.243z M76.845,41.608h0.065
	c0.42,0.436,2.964,3.31,5.475,5.796c2.382,2.367,5.326,5.381,6.779,6.762c0.247,0.253,0.527,0.5,0.775,0.5
	c0.203,0,0.303-0.204,0.303-0.711l0.246-14.51c0.022-1.282,0.217-1.767,0.853-1.951c0.281-0.071,0.465-0.071,0.69-0.071
	c0.281,0,0.422-0.07,0.422-0.204c0-0.183-0.238-0.211-0.533-0.211c-1.13,0-2.003,0.07-2.249,0.07c-0.486,0-1.598-0.07-2.78-0.07
	c-0.344,0-0.604,0.028-0.604,0.211c0,0.134,0.099,0.204,0.366,0.204c0.323,0,0.872,0,1.215,0.141
	c0.551,0.226,0.767,0.662,0.789,2.07l0.225,10.32h-0.119c-0.387-0.367-3.489-3.677-5.053-5.241
	c-3.351-3.332-6.844-7.079-7.125-7.382c-0.392-0.415-0.597-0.711-0.854-0.711c-0.228,0-0.291,0.324-0.291,0.782l-0.205,13.608
	c-0.033,2-0.119,2.669-0.725,2.853c-0.31,0.091-0.732,0.112-1.034,0.112c-0.226,0-0.366,0.049-0.366,0.19
	c0,0.204,0.216,0.225,0.506,0.225c1.198,0,2.275-0.07,2.493-0.07c0.434,0,1.35,0.07,2.85,0.07c0.324,0,0.528-0.042,0.528-0.225
	c0-0.141-0.14-0.19-0.389-0.19c-0.365,0-0.809-0.021-1.195-0.155c-0.465-0.163-0.754-0.761-0.81-2.557L76.845,41.608L76.845,41.608z
	 M103.624,48.391H98.49c-0.106,0-0.162,0.048-0.205,0.183l-1.24,3.29c-0.226,0.577-0.343,1.126-0.343,1.401
	c0,0.416,0.203,0.711,0.914,0.711h0.345c0.281,0,0.346,0.049,0.346,0.19c0,0.183-0.14,0.225-0.388,0.225
	c-0.732,0-1.725-0.07-2.438-0.07c-0.246,0-1.521,0.07-2.717,0.07c-0.29,0-0.432-0.042-0.432-0.225c0-0.141,0.087-0.19,0.27-0.19
	c0.216,0,0.54-0.021,0.725-0.042c1.055-0.141,1.486-0.923,1.951-2.07l5.768-14.44c0.281-0.669,0.409-0.916,0.646-0.916
	c0.206,0,0.347,0.204,0.572,0.733c0.55,1.268,4.227,10.642,5.706,14.125c0.873,2.063,1.54,2.384,2.015,2.518
	c0.346,0.07,0.689,0.091,0.971,0.091c0.184,0,0.302,0.028,0.302,0.19c0,0.183-0.215,0.225-1.056,0.225c-0.83,0-2.514,0-4.347-0.042
	c-0.421-0.028-0.689-0.028-0.689-0.183c0-0.141,0.086-0.19,0.313-0.211c0.16-0.042,0.322-0.254,0.215-0.528l-1.844-4.874
	C103.808,48.439,103.73,48.391,103.624,48.391L103.624,48.391z M98.954,47.243h4.227c0.119,0,0.141-0.07,0.119-0.141l-2.069-5.677
	c-0.022-0.091-0.042-0.204-0.12-0.204c-0.064,0-0.105,0.113-0.128,0.204l-2.126,5.657C98.835,47.172,98.856,47.243,98.954,47.243
	L98.954,47.243z M113.675,47.729c0,2.113,0,3.93-0.119,4.896c-0.099,0.669-0.205,1.169-0.668,1.261
	c-0.206,0.049-0.487,0.091-0.832,0.091c-0.268,0-0.366,0.071-0.366,0.19c0,0.155,0.162,0.225,0.464,0.225
	c0.456,0,1.058-0.042,1.586-0.042c0.55-0.028,1.056-0.028,1.316-0.028c0.57,0,1.367,0.07,2.24,0.141
	c0.878,0.07,1.824,0.141,2.653,0.141c4.25,0,6.644-1.634,7.7-2.719c1.282-1.31,2.501-3.515,2.501-6.41
	c0-2.739-1.077-4.648-2.22-5.839c-2.514-2.626-6.353-2.626-9.221-2.626c-1.38,0-2.837,0.07-3.548,0.07
	c-0.647,0-2.093-0.07-3.311-0.07c-0.346,0-0.508,0.049-0.508,0.211s0.141,0.204,0.389,0.204c0.323,0,0.724,0.021,0.907,0.071
	c0.754,0.162,0.937,0.528,0.979,1.31c0.056,0.732,0.056,1.38,0.056,4.874V47.729L113.675,47.729z M116.543,43.313
	c0-1.817,0-3.817,0.021-4.599c0-0.253,0.076-0.367,0.28-0.458c0.184-0.092,1.037-0.163,1.488-0.163c1.803,0,4.422,0.275,6.535,2.297
	c0.993,0.944,2.211,2.831,2.211,5.747c0,2.374-0.464,4.466-1.93,5.727c-1.381,1.197-2.944,1.654-5.296,1.654
	c-1.812,0-2.706-0.479-3.009-0.916c-0.182-0.253-0.237-1.176-0.259-1.747c-0.021-0.436-0.042-2.211-0.042-4.648V43.313
	L116.543,43.313z M134.96,47.729c0,2.227,0,4.043-0.119,5.008c-0.064,0.669-0.203,1.056-0.664,1.148
	c-0.21,0.049-0.479,0.091-0.822,0.091c-0.28,0-0.366,0.071-0.366,0.19c0,0.155,0.161,0.225,0.452,0.225
	c0.929,0,2.372-0.07,2.899-0.07c0.619,0,2.072,0.07,3.592,0.07c0.248,0,0.431-0.07,0.431-0.225c0-0.12-0.119-0.19-0.366-0.19
	c-0.345,0-0.852-0.042-1.176-0.091c-0.689-0.092-0.853-0.5-0.917-1.127c-0.098-0.986-0.098-2.803-0.098-5.029v-4.05
	c0-3.494,0-4.142,0.056-4.874c0.042-0.803,0.227-1.197,0.853-1.31c0.269-0.05,0.452-0.071,0.688-0.071
	c0.229,0,0.368-0.042,0.368-0.226c0-0.14-0.183-0.189-0.486-0.189c-0.872,0-2.232,0.07-2.803,0.07c-0.669,0-2.112-0.07-2.986-0.07
	c-0.38,0-0.563,0.049-0.563,0.189c0,0.184,0.143,0.226,0.368,0.226c0.28,0,0.583,0.021,0.83,0.092
	c0.508,0.12,0.733,0.507,0.788,1.289c0.042,0.732,0.042,1.38,0.042,4.874V47.729L134.96,47.729z M151.401,48.391h-5.129
	c-0.12,0-0.161,0.048-0.204,0.183l-1.24,3.29c-0.239,0.577-0.346,1.126-0.346,1.401c0,0.416,0.205,0.711,0.916,0.711h0.346
	c0.281,0,0.346,0.049,0.346,0.19c0,0.183-0.141,0.225-0.389,0.225c-0.741,0-1.726-0.07-2.437-0.07c-0.261,0-1.521,0.07-2.718,0.07
	c-0.304,0-0.432-0.042-0.432-0.225c0-0.141,0.086-0.19,0.269-0.19c0.205,0,0.529-0.021,0.712-0.042
	c1.057-0.141,1.499-0.923,1.962-2.07l5.771-14.44c0.269-0.669,0.409-0.916,0.635-0.916c0.218,0,0.346,0.204,0.584,0.733
	c0.55,1.268,4.227,10.642,5.701,14.125c0.875,2.063,1.534,2.384,2.019,2.518c0.346,0.07,0.691,0.091,0.972,0.091
	c0.184,0,0.29,0.028,0.29,0.19c0,0.183-0.203,0.225-1.057,0.225c-0.817,0-2.501,0-4.346-0.042c-0.41-0.028-0.69-0.028-0.69-0.183
	c0-0.141,0.098-0.19,0.324-0.211c0.163-0.042,0.323-0.254,0.204-0.528l-1.832-4.874C151.59,48.439,151.514,48.391,151.401,48.391
	L151.401,48.391z M146.736,47.243h4.227c0.119,0,0.141-0.07,0.119-0.141l-2.07-5.677c-0.021-0.091-0.055-0.204-0.12-0.204
	c-0.063,0-0.119,0.113-0.14,0.204l-2.112,5.657C146.616,47.172,146.64,47.243,146.736,47.243L146.736,47.243z M162.487,41.608h0.075
	c0.41,0.436,2.967,3.31,5.464,5.796c2.395,2.367,5.338,5.381,6.778,6.762c0.26,0.253,0.528,0.5,0.788,0.5
	c0.205,0,0.291-0.204,0.291-0.711l0.259-14.51c0.022-1.282,0.205-1.767,0.853-1.951c0.27-0.071,0.452-0.071,0.69-0.071
	c0.269,0,0.408-0.07,0.408-0.204c0-0.183-0.225-0.211-0.527-0.211c-1.134,0-2.007,0.07-2.253,0.07c-0.486,0-1.586-0.07-2.78-0.07
	c-0.344,0-0.592,0.028-0.592,0.211c0,0.134,0.086,0.204,0.366,0.204c0.323,0,0.874,0,1.215,0.141c0.55,0.226,0.754,0.662,0.776,2.07
	l0.238,10.32h-0.119c-0.388-0.367-3.49-3.677-5.054-5.241c-3.363-3.332-6.856-7.079-7.125-7.382
	c-0.391-0.415-0.607-0.711-0.854-0.711c-0.228,0-0.304,0.324-0.304,0.782l-0.205,13.608c-0.021,2-0.118,2.669-0.711,2.853
	c-0.323,0.091-0.733,0.112-1.036,0.112c-0.225,0-0.365,0.049-0.365,0.19c0,0.204,0.204,0.225,0.508,0.225
	c1.196,0,2.273-0.07,2.479-0.07c0.445,0,1.362,0.07,2.85,0.07c0.324,0,0.531-0.042,0.531-0.225c0-0.141-0.13-0.19-0.392-0.19
	c-0.365,0-0.795-0.021-1.195-0.155c-0.452-0.163-0.754-0.761-0.798-2.557L162.487,41.608z"/>
<path fill-rule="evenodd" clip-rule="evenodd" fill="#993333" d="M42.543,60.554c0-1.285,0-1.517,0.017-1.786
	c0.015-0.3,0.077-0.446,0.302-0.485c0.105-0.015,0.244-0.023,0.33-0.023c0.106,0,0.154-0.016,0.154-0.077
	c0-0.061-0.055-0.077-0.178-0.077c-0.33,0-0.939,0.023-1.141,0.023c-0.236,0-0.769-0.023-1.161-0.023
	c-0.13,0-0.185,0.016-0.185,0.077c0,0.062,0.047,0.077,0.146,0.077c0.103,0,0.208,0.008,0.271,0.023
	c0.284,0.062,0.346,0.193,0.362,0.485c0.028,0.269,0.028,0.501,0.028,1.786v1.486c0,0.777,0,1.447-0.054,1.801
	c-0.03,0.246-0.069,0.431-0.238,0.462c-0.084,0.015-0.177,0.038-0.308,0.038c-0.094,0-0.139,0.023-0.139,0.062
	c0,0.062,0.069,0.085,0.171,0.085c0.169,0,0.397-0.016,0.59-0.016c0.201-0.008,0.386-0.008,0.472-0.008
	c0.346,0,0.653,0.008,1.032,0.023c0.39,0.007,0.823,0.03,1.436,0.03c0.435,0,0.472-0.045,0.532-0.23
	c0.063-0.246,0.118-0.877,0.118-0.97c0-0.1-0.009-0.145-0.063-0.145c-0.063,0-0.091,0.053-0.1,0.13
	c-0.017,0.161-0.109,0.394-0.216,0.507c-0.209,0.225-0.54,0.232-0.993,0.232c-0.648,0-0.877-0.055-1.01-0.185
	c-0.178-0.154-0.178-0.732-0.178-1.816V60.554L42.543,60.554z M120.948,64.611c0.454,0,0.93-0.077,1.347-0.347
	c0.614-0.4,0.8-0.984,0.8-1.47c0-0.801-0.362-1.386-1.385-2.155l-0.245-0.177c-0.701-0.532-0.894-0.825-0.894-1.217
	c0-0.507,0.377-0.87,1.007-0.87c0.547,0,0.8,0.254,0.918,0.416c0.177,0.216,0.229,0.478,0.229,0.555c0,0.1,0.022,0.153,0.077,0.153
	c0.062,0,0.1-0.069,0.1-0.254c0-0.657,0.03-0.901,0.03-1.016c0-0.055-0.039-0.084-0.121-0.1c-0.217-0.055-0.571-0.14-1.118-0.14
	c-1.178,0-1.961,0.663-1.961,1.594c0,0.685,0.323,1.277,1.261,2l0.385,0.302c0.701,0.554,0.831,0.939,0.831,1.354
	c0,0.447-0.376,0.963-1.137,0.963c-0.524,0-1.025-0.231-1.21-0.854c-0.039-0.14-0.069-0.316-0.069-0.431
	c0-0.063-0.01-0.14-0.092-0.14c-0.062,0-0.085,0.092-0.094,0.216c-0.008,0.139-0.052,0.646-0.052,1.108
	c0,0.185,0.035,0.23,0.161,0.285C120.079,64.549,120.469,64.611,120.948,64.611L120.948,64.611z M49.51,62.04
	c0,0.777,0,1.447-0.051,1.801c-0.031,0.246-0.072,0.431-0.241,0.462c-0.07,0.015-0.177,0.038-0.306,0.038
	c-0.094,0-0.139,0.023-0.139,0.062c0,0.062,0.067,0.085,0.169,0.085c0.17,0,0.398-0.016,0.592-0.016
	c0.2-0.008,0.385-0.008,0.484-0.008c0.247,0,0.516,0.008,0.878,0.023c0.36,0.007,0.817,0.03,1.455,0.03c0.323,0,0.395,0,0.46-0.222
	c0.04-0.17,0.103-0.741,0.103-0.94c0-0.084,0-0.146-0.063-0.146c-0.056,0-0.083,0.031-0.1,0.124
	c-0.054,0.346-0.161,0.523-0.377,0.624c-0.216,0.1-0.571,0.1-0.787,0.1c-0.861,0-1-0.123-1.016-0.708c-0.008-0.246,0-1.021,0-1.309
	v-0.663c0-0.053,0.009-0.084,0.048-0.084c0.2,0,1.039,0.007,1.2,0.023c0.314,0.031,0.425,0.162,0.477,0.331
	c0.023,0.107,0.023,0.216,0.03,0.3c0,0.045,0.016,0.077,0.072,0.077c0.082,0,0.082-0.093,0.082-0.162
	c0-0.062,0.024-0.394,0.03-0.563c0.032-0.431,0.064-0.568,0.064-0.615c0-0.054-0.023-0.07-0.056-0.07
	c-0.039,0-0.069,0.039-0.137,0.108c-0.071,0.085-0.201,0.108-0.402,0.131c-0.192,0.015-1.169,0.015-1.354,0.015
	c-0.046,0-0.055-0.038-0.055-0.093v-2.14c0-0.061,0.016-0.084,0.055-0.084c0.169,0,1.056,0.016,1.2,0.036
	c0.418,0.048,0.508,0.149,0.563,0.303c0.047,0.101,0.061,0.246,0.061,0.3c0,0.077,0.015,0.123,0.069,0.123
	c0.056,0,0.07-0.054,0.078-0.093c0.028-0.1,0.045-0.477,0.053-0.562c0.023-0.385,0.063-0.486,0.063-0.546
	c0-0.04-0.009-0.078-0.048-0.078s-0.098,0.023-0.138,0.038c-0.063,0.016-0.201,0.031-0.362,0.047
	c-0.16,0.008-1.846,0.008-2.11,0.008c-0.121,0-0.313-0.008-0.53-0.015c-0.208,0-0.459-0.008-0.685-0.008
	c-0.13,0-0.186,0.016-0.186,0.077c0,0.062,0.047,0.077,0.146,0.077c0.11,0,0.255,0.008,0.318,0.023
	c0.283,0.062,0.346,0.193,0.374,0.485c0.016,0.269,0.016,0.501,0.016,1.786V62.04L49.51,62.04z M59.98,62.286
	c0.038,0,0.062,0.016,0.078,0.062l0.676,1.787c0.04,0.1-0.015,0.177-0.07,0.199c-0.091,0.008-0.122,0.023-0.122,0.07
	c0,0.062,0.107,0.062,0.262,0.069c0.662,0.016,1.285,0.016,1.594,0.016c0.314,0,0.384-0.016,0.384-0.085
	c0-0.054-0.038-0.062-0.114-0.062c-0.094,0-0.223-0.008-0.354-0.038c-0.177-0.047-0.415-0.168-0.738-0.92
	c-0.54-1.281-1.895-4.73-2.095-5.192c-0.078-0.193-0.138-0.269-0.208-0.269c-0.091,0-0.139,0.093-0.245,0.338l-2.117,5.304
	c-0.171,0.423-0.331,0.708-0.717,0.754c-0.062,0.015-0.185,0.023-0.255,0.023c-0.075,0-0.107,0.016-0.107,0.062
	c0,0.069,0.048,0.085,0.162,0.085c0.433,0,0.901-0.023,1-0.023c0.256,0,0.618,0.023,0.894,0.023c0.086,0,0.145-0.016,0.145-0.085
	c0-0.046-0.027-0.062-0.129-0.062h-0.13c-0.256,0-0.339-0.115-0.339-0.262c0-0.107,0.039-0.308,0.13-0.516l0.461-1.208
	c0.017-0.054,0.032-0.069,0.07-0.069H59.98L59.98,62.286z M58.263,61.863c-0.031,0-0.037-0.024-0.031-0.062l0.771-2.071
	c0.009-0.038,0.024-0.077,0.062-0.077c0.023,0,0.03,0.039,0.038,0.077l0.756,2.086c0.008,0.023,0,0.047-0.039,0.047H58.263
	L58.263,61.863z M66.585,62.04c0,0.777,0,1.447-0.04,1.801c-0.044,0.246-0.083,0.431-0.252,0.462
	c-0.069,0.015-0.177,0.038-0.308,0.038c-0.095,0-0.125,0.023-0.125,0.062c0,0.062,0.054,0.085,0.169,0.085
	c0.338,0,0.869-0.023,1.031-0.023c0.117,0,0.748,0.023,1.241,0.023c0.101,0,0.168-0.023,0.168-0.085
	c0-0.039-0.044-0.062-0.106-0.062c-0.106,0-0.291-0.023-0.409-0.038c-0.26-0.031-0.308-0.216-0.331-0.462
	c-0.038-0.354-0.038-1.024-0.038-1.809v-0.116c0-0.054,0.022-0.069,0.062-0.069l0.731,0.016c0.068,0,0.116,0.008,0.153,0.062
	c0.116,0.124,0.501,0.701,0.839,1.163c0.478,0.654,0.787,1.047,1.162,1.246c0.217,0.116,0.426,0.155,0.902,0.155h0.794
	c0.106,0,0.161-0.016,0.161-0.085c0-0.039-0.031-0.062-0.095-0.062c-0.075,0-0.144-0.008-0.244-0.03
	c-0.117-0.023-0.464-0.084-0.94-0.569c-0.499-0.524-1.079-1.278-1.838-2.225c0.854-0.693,1.122-1.264,1.122-1.894
	c0-0.563-0.338-0.993-0.583-1.155c-0.448-0.309-1.011-0.362-1.555-0.362c-0.257,0-0.901,0.023-1.181,0.023
	c-0.178,0-0.709-0.023-1.162-0.023c-0.13,0-0.185,0.016-0.185,0.077c0,0.062,0.048,0.077,0.146,0.077
	c0.109,0,0.256,0.008,0.332,0.023c0.271,0.062,0.345,0.193,0.361,0.485c0.016,0.269,0.016,0.501,0.016,1.786V62.04L66.585,62.04z
	 M67.585,58.653c0-0.064,0.016-0.101,0.069-0.116c0.079-0.024,0.232-0.032,0.453-0.032c0.488,0,1.287,0.34,1.287,1.541
	c0,0.692-0.24,1.084-0.501,1.27c-0.152,0.108-0.255,0.143-0.592,0.143c-0.223,0-0.471-0.027-0.647-0.082
	c-0.054-0.03-0.069-0.061-0.069-0.153V58.653L67.585,58.653z M76.249,59.792h0.037c0.14,0.163,1.086,1.217,2.002,2.133
	c0.877,0.87,1.956,1.978,2.486,2.479c0.098,0.092,0.204,0.192,0.29,0.192c0.085,0,0.115-0.077,0.115-0.262l0.086-5.334
	c0.008-0.47,0.084-0.647,0.314-0.716c0.107-0.023,0.169-0.023,0.26-0.023c0.095,0,0.142-0.031,0.142-0.077
	c0-0.068-0.077-0.077-0.192-0.077c-0.408,0-0.731,0.023-0.818,0.023c-0.182,0-0.593-0.023-1.021-0.023
	c-0.131,0-0.23,0.008-0.23,0.077c0,0.046,0.045,0.077,0.139,0.077c0.123,0,0.323,0,0.452,0.047c0.201,0.085,0.271,0.246,0.279,0.762
	l0.091,3.794h-0.04c-0.145-0.138-1.29-1.354-1.86-1.931c-1.23-1.225-2.522-2.595-2.616-2.71c-0.147-0.147-0.217-0.262-0.316-0.262
	c-0.077,0-0.114,0.123-0.114,0.292l-0.07,4.997c-0.008,0.738-0.04,0.978-0.255,1.047c-0.122,0.037-0.276,0.045-0.391,0.045
	c-0.078,0-0.126,0.016-0.126,0.062c0,0.077,0.071,0.085,0.185,0.085c0.434,0,0.827-0.023,0.909-0.023
	c0.162,0,0.503,0.023,1.05,0.023c0.122,0,0.191-0.016,0.191-0.085c0-0.046-0.047-0.062-0.146-0.062
	c-0.138,0-0.287-0.008-0.432-0.062c-0.17-0.061-0.284-0.277-0.301-0.938L76.249,59.792L76.249,59.792z M86.783,62.04
	c0,0.822,0,1.486-0.038,1.839c-0.024,0.247-0.083,0.393-0.253,0.423c-0.07,0.015-0.177,0.038-0.294,0.038
	c-0.106,0-0.139,0.023-0.139,0.062c0,0.062,0.056,0.085,0.169,0.085c0.34,0,0.871-0.023,1.063-0.023
	c0.223,0,0.755,0.023,1.312,0.023c0.097,0,0.16-0.023,0.16-0.085c0-0.039-0.039-0.062-0.125-0.062c-0.13,0-0.315-0.023-0.438-0.038
	c-0.249-0.031-0.315-0.185-0.339-0.415c-0.031-0.362-0.031-1.025-0.031-1.848v-1.486c0-1.285,0-1.517,0.016-1.786
	c0.016-0.3,0.091-0.446,0.315-0.485c0.097-0.015,0.168-0.023,0.247-0.023c0.091,0,0.139-0.016,0.139-0.085
	c0-0.053-0.063-0.068-0.178-0.068c-0.323,0-0.823,0.023-1.031,0.023c-0.239,0-0.771-0.023-1.094-0.023
	c-0.139,0-0.201,0.016-0.201,0.068c0,0.07,0.048,0.085,0.134,0.085c0.099,0,0.213,0.008,0.3,0.031
	c0.185,0.045,0.274,0.185,0.29,0.477c0.016,0.269,0.016,0.501,0.016,1.786V62.04L86.783,62.04z M93.899,59.792h0.024
	c0.153,0.163,1.085,1.217,2.014,2.133c0.878,0.87,1.957,1.978,2.485,2.479c0.086,0.092,0.193,0.192,0.292,0.192
	c0.069,0,0.103-0.077,0.103-0.262l0.098-5.334c0.008-0.47,0.07-0.647,0.313-0.716c0.096-0.023,0.163-0.023,0.251-0.023
	c0.106,0,0.153-0.031,0.153-0.077c0-0.068-0.09-0.077-0.193-0.077c-0.422,0-0.732,0.023-0.83,0.023
	c-0.178,0-0.578-0.023-1.022-0.023c-0.129,0-0.217,0.008-0.217,0.077c0,0.046,0.031,0.077,0.138,0.077c0.111,0,0.312,0,0.44,0.047
	c0.2,0.085,0.282,0.246,0.291,0.762l0.078,3.794h-0.039c-0.146-0.138-1.277-1.354-1.861-1.931c-1.229-1.225-2.509-2.595-2.615-2.71
	c-0.137-0.147-0.217-0.262-0.304-0.262c-0.091,0-0.114,0.123-0.114,0.292L93.3,63.249c-0.008,0.738-0.04,0.978-0.256,1.047
	c-0.123,0.037-0.275,0.045-0.379,0.045c-0.09,0-0.137,0.016-0.137,0.062c0,0.077,0.071,0.085,0.184,0.085
	c0.447,0,0.84-0.023,0.91-0.023c0.163,0,0.502,0.023,1.047,0.023c0.123,0,0.195-0.016,0.195-0.085c0-0.046-0.047-0.062-0.135-0.062
	c-0.137,0-0.299-0.008-0.444-0.062c-0.17-0.061-0.272-0.277-0.299-0.938L93.899,59.792L93.899,59.792z M109.464,62.994
	c0-0.423,0-0.762,0.007-1.009c0.021-0.299,0.101-0.445,0.323-0.484c0.107-0.016,0.162-0.023,0.236-0.023
	c0.057,0,0.102-0.019,0.102-0.069c0-0.069-0.054-0.084-0.168-0.084c-0.271,0-0.725,0.023-0.979,0.023
	c-0.261,0-0.791-0.023-1.225-0.023c-0.122,0-0.177,0.016-0.177,0.084c0,0.05,0.048,0.069,0.117,0.069
	c0.123,0,0.269,0.007,0.33,0.023c0.285,0.061,0.354,0.192,0.362,0.484c0.008,0.248,0.008,0.571,0.008,0.994v0.792
	c0,0.146-0.03,0.254-0.161,0.315c-0.201,0.093-0.487,0.093-0.715,0.093c-1.781,0-2.94-1.363-2.94-3.179
	c0-1.04,0.306-1.671,0.783-2.071c0.586-0.485,1.207-0.523,1.664-0.523c0.961,0,1.637,0.392,1.886,0.662
	c0.229,0.239,0.268,0.508,0.291,0.701c0.008,0.069,0.023,0.107,0.079,0.107c0.073,0,0.098-0.039,0.098-0.177
	c0-1.054,0.055-1.292,0.055-1.385c0-0.054-0.016-0.092-0.11-0.1c-0.204-0.008-0.491-0.055-0.668-0.093
	c-0.169-0.031-0.909-0.132-1.499-0.132c-0.71,0-1.457,0.054-2.272,0.547c-0.762,0.462-1.463,1.409-1.463,2.763
	c0,2.326,1.825,3.311,3.895,3.311c0.662,0,1.493-0.093,2.039-0.385c0.096-0.054,0.104-0.071,0.104-0.3V62.994L109.464,62.994z
	 M128.959,62.994c0,0.139,0,0.493-0.027,0.847c-0.017,0.246-0.088,0.431-0.255,0.462c-0.084,0.015-0.178,0.038-0.301,0.038
	c-0.086,0-0.138,0.023-0.138,0.062c0,0.069,0.075,0.085,0.186,0.085c0.314,0,0.846-0.023,1.06-0.023
	c0.231,0,0.763,0.023,1.295,0.023c0.113,0,0.176-0.023,0.176-0.085c0-0.039-0.038-0.062-0.138-0.062
	c-0.118,0-0.307-0.023-0.417-0.038c-0.259-0.031-0.33-0.216-0.345-0.462c-0.025-0.354-0.025-0.708-0.025-0.847v-0.693
	c0-0.277,0-0.539,0.118-0.843c0.152-0.366,1.338-2.345,1.621-2.684c0.186-0.23,0.272-0.33,0.449-0.415
	c0.131-0.069,0.292-0.1,0.37-0.1c0.098,0,0.161-0.031,0.161-0.085c0-0.053-0.056-0.068-0.153-0.068c-0.151,0-0.716,0.023-0.9,0.023
	c-0.24,0-0.517-0.023-0.788-0.023c-0.105,0-0.146,0.016-0.146,0.077c0,0.046,0.07,0.069,0.154,0.085
	c0.146,0.031,0.177,0.124,0.177,0.208c0,0.112-0.031,0.253-0.122,0.438c-0.123,0.263-1.186,2.125-1.264,2.325
	c-0.139-0.238-1.322-2.271-1.433-2.524c-0.067-0.117-0.107-0.224-0.107-0.285c0-0.069,0.04-0.138,0.123-0.154
	c0.118-0.031,0.184-0.046,0.184-0.093c0-0.053-0.05-0.077-0.129-0.077c-0.377,0-0.724,0.023-0.9,0.023
	c-0.284,0-0.91-0.023-1.063-0.023c-0.106,0-0.162,0.023-0.162,0.077c0,0.062,0.056,0.077,0.118,0.077
	c0.105,0,0.252,0.047,0.354,0.108c0.162,0.092,0.383,0.301,0.591,0.616c0.299,0.439,1.425,2.294,1.48,2.433
	c0.113,0.246,0.196,0.431,0.196,0.885V62.994L128.959,62.994z M137.358,64.611c0.44,0,0.917-0.077,1.336-0.347
	c0.613-0.4,0.798-0.984,0.798-1.47c0-0.801-0.362-1.386-1.387-2.155l-0.231-0.177c-0.701-0.532-0.894-0.825-0.894-1.217
	c0-0.507,0.378-0.87,0.995-0.87c0.553,0,0.801,0.254,0.93,0.416c0.176,0.216,0.217,0.478,0.217,0.555c0,0.1,0.023,0.153,0.077,0.153
	c0.076,0,0.101-0.069,0.101-0.254c0-0.657,0.029-0.901,0.029-1.016c0-0.055-0.038-0.084-0.12-0.1
	c-0.218-0.055-0.571-0.14-1.118-0.14c-1.179,0-1.949,0.663-1.949,1.594c0,0.685,0.324,1.277,1.248,2l0.387,0.302
	c0.7,0.554,0.83,0.939,0.83,1.354c0,0.447-0.37,0.963-1.138,0.963c-0.524,0-1.013-0.231-1.199-0.854
	c-0.049-0.14-0.08-0.316-0.08-0.431c0-0.063-0.008-0.14-0.078-0.14c-0.075,0-0.099,0.092-0.106,0.216
	c-0.009,0.139-0.04,0.646-0.04,1.108c0,0.185,0.023,0.23,0.162,0.285C136.487,64.549,136.866,64.611,137.358,64.611L137.358,64.611z
	 M145.543,62.04c0,0.777,0,1.447-0.042,1.801c-0.034,0.246-0.082,0.431-0.251,0.462c-0.069,0.015-0.176,0.038-0.308,0.038
	c-0.094,0-0.125,0.023-0.125,0.062c0,0.062,0.055,0.085,0.17,0.085c0.338,0,0.869-0.023,1.062-0.023
	c0.233,0,0.765,0.023,1.318,0.023c0.099,0,0.162-0.023,0.162-0.085c0-0.039-0.04-0.062-0.135-0.062c-0.12,0-0.306-0.023-0.429-0.038
	c-0.248-0.031-0.307-0.216-0.329-0.454c-0.041-0.362-0.041-1.032-0.041-1.809v-3.464l1.064,0.031
	c0.747,0.015,0.983,0.253,0.999,0.469l0.009,0.093c0.007,0.13,0.022,0.169,0.085,0.169c0.06,0,0.075-0.047,0.084-0.131
	c0-0.223,0.022-0.808,0.022-0.985c0-0.124-0.007-0.178-0.063-0.178c-0.043,0-0.105,0.016-0.234,0.046
	c-0.133,0.016-0.316,0.039-0.579,0.039h-3.342c-0.283,0-0.606-0.015-0.847-0.039c-0.209-0.016-0.299-0.101-0.36-0.101
	s-0.085,0.047-0.108,0.155c-0.016,0.07-0.177,0.839-0.177,0.977c0,0.093,0.016,0.132,0.082,0.132c0.048,0,0.07-0.032,0.087-0.101
	c0.016-0.069,0.055-0.169,0.146-0.292c0.129-0.191,0.33-0.23,0.821-0.246l1.258-0.038V62.04L145.543,62.04z M153.331,62.04
	c0,0.777,0,1.447-0.052,1.801c-0.03,0.246-0.071,0.431-0.239,0.462c-0.075,0.015-0.177,0.038-0.307,0.038
	c-0.095,0-0.139,0.023-0.139,0.062c0,0.062,0.066,0.085,0.17,0.085c0.167,0,0.397-0.016,0.591-0.016
	c0.2-0.008,0.385-0.008,0.473-0.008c0.258,0,0.515,0.008,0.889,0.023c0.361,0.007,0.818,0.03,1.456,0.03
	c0.323,0,0.394,0,0.462-0.222c0.038-0.17,0.102-0.741,0.102-0.94c0-0.084,0-0.146-0.063-0.146c-0.068,0-0.083,0.031-0.099,0.124
	c-0.056,0.346-0.162,0.523-0.378,0.624c-0.216,0.1-0.57,0.1-0.788,0.1c-0.861,0-0.999-0.123-1.016-0.708
	c-0.007-0.246,0-1.021,0-1.309v-0.663c0-0.053,0.009-0.084,0.049-0.084c0.2,0,1.039,0.007,1.2,0.023
	c0.314,0.031,0.426,0.162,0.477,0.331c0.023,0.107,0.023,0.216,0.03,0.3c0,0.045,0.017,0.077,0.071,0.077
	c0.082,0,0.082-0.093,0.082-0.162c0-0.062,0.024-0.394,0.032-0.563c0.031-0.431,0.063-0.568,0.063-0.615
	c0-0.054-0.023-0.07-0.054-0.07c-0.041,0-0.084,0.039-0.139,0.108c-0.07,0.085-0.201,0.108-0.401,0.131
	c-0.191,0.015-1.169,0.015-1.354,0.015c-0.048,0-0.057-0.038-0.057-0.093v-2.14c0-0.061,0.017-0.084,0.057-0.084
	c0.169,0,1.054,0.016,1.201,0.036c0.417,0.048,0.507,0.149,0.561,0.303c0.041,0.101,0.048,0.246,0.048,0.3
	c0,0.077,0.027,0.123,0.084,0.123c0.054,0,0.069-0.054,0.078-0.093c0.025-0.1,0.044-0.477,0.051-0.562
	c0.024-0.385,0.063-0.486,0.063-0.546c0-0.04-0.007-0.078-0.048-0.078s-0.098,0.023-0.138,0.038
	c-0.063,0.016-0.201,0.031-0.361,0.047c-0.161,0.008-1.846,0.008-2.11,0.008c-0.122,0-0.314-0.008-0.531-0.015
	c-0.221,0-0.46-0.008-0.686-0.008c-0.129,0-0.185,0.016-0.185,0.077c0,0.062,0.047,0.077,0.146,0.077
	c0.111,0,0.256,0.008,0.318,0.023c0.285,0.062,0.347,0.193,0.363,0.485c0.027,0.269,0.027,0.501,0.027,1.786V62.04L153.331,62.04z
	 M161.054,63.648c-0.039,0.286-0.114,0.616-0.347,0.663c-0.13,0.03-0.186,0.03-0.249,0.03c-0.09,0-0.137,0.016-0.137,0.055
	c0,0.077,0.063,0.092,0.153,0.092c0.264,0,0.678-0.023,0.83-0.023c0.149,0,0.539,0.023,0.895,0.023c0.118,0,0.2-0.016,0.2-0.092
	c0-0.039-0.067-0.055-0.13-0.055c-0.085,0-0.2-0.008-0.354-0.045c-0.146-0.032-0.247-0.108-0.247-0.27
	c0-0.138,0.008-0.247,0.023-0.4l0.434-3.356h0.031c0.298,0.632,0.806,1.694,0.877,1.871c0.107,0.239,0.775,1.533,0.976,1.917
	c0.138,0.254,0.217,0.423,0.301,0.423c0.069,0,0.109-0.077,0.304-0.47l1.844-3.833h0.031l0.51,3.711
	c0.029,0.238,0.007,0.346-0.041,0.368c-0.054,0.023-0.098,0.047-0.098,0.093c0,0.047,0.06,0.076,0.251,0.092
	c0.34,0.023,1.498,0.047,1.717,0.047c0.109,0,0.217-0.023,0.217-0.092c0-0.047-0.056-0.055-0.139-0.055
	c-0.103,0-0.271-0.008-0.523-0.085c-0.247-0.076-0.338-0.322-0.408-0.854l-0.776-5.219c-0.023-0.178-0.071-0.261-0.154-0.261
	c-0.069,0-0.108,0.068-0.184,0.2l-2.296,4.826l-2.302-4.765c-0.114-0.223-0.161-0.261-0.225-0.261c-0.074,0-0.122,0.076-0.146,0.215
	L161.054,63.648L161.054,63.648z M174.069,64.611c0.44,0,0.917-0.077,1.348-0.347c0.601-0.4,0.786-0.984,0.786-1.47
	c0-0.801-0.361-1.386-1.386-2.155l-0.231-0.177c-0.7-0.532-0.895-0.825-0.895-1.217c0-0.507,0.378-0.87,0.997-0.87
	c0.559,0,0.799,0.254,0.929,0.416c0.177,0.216,0.215,0.478,0.215,0.555c0,0.1,0.025,0.153,0.083,0.153
	c0.071,0,0.094-0.069,0.094-0.254c0-0.657,0.034-0.901,0.034-1.016c0-0.055-0.04-0.084-0.111-0.1c-0.229-0.055-0.582-0.14-1.13-0.14
	c-1.177,0-1.948,0.663-1.948,1.594c0,0.685,0.322,1.277,1.247,2l0.387,0.302c0.701,0.554,0.831,0.939,0.831,1.354
	c0,0.447-0.371,0.963-1.127,0.963c-0.528,0-1.022-0.231-1.208-0.854c-0.051-0.14-0.083-0.316-0.083-0.431
	c0-0.063-0.008-0.14-0.079-0.14c-0.073,0-0.098,0.092-0.105,0.216c-0.008,0.139-0.039,0.646-0.039,1.108
	c0,0.185,0.024,0.23,0.162,0.285C173.201,64.549,173.578,64.611,174.069,64.611z"/>
</svg>
