<?xml version="1.0" encoding="utf-8"?>
<!-- Generator: Adobe Illustrator 15.0.0, SVG Export Plug-In  -->
<!DOCTYPE svg PUBLIC "-//W3C//DTD SVG 1.1//EN" "http://www.w3.org/Graphics/SVG/1.1/DTD/svg11.dtd" [
	<!ENTITY ns_flows "http://ns.adobe.com/Flows/1.0/">
]>
<svg version="1.1"
	 xmlns="http://www.w3.org/2000/svg" xmlns:xlink="http://www.w3.org/1999/xlink" xmlns:a="http://ns.adobe.com/AdobeSVGViewerExtensions/3.0/"
	 x="0px" y="0px" width="25px" height="35px" viewBox="-1 -1 25 35" enable-background="new -1 -1 25 35" xml:space="preserve">
<defs>
</defs>
<path fill-rule="evenodd" clip-rule="evenodd" fill="#993333" d="M16.264,32.231l-3.676-0.094c-0.655-2.18,0.101-7.276,0.461-9.721
	c-0.239-0.228-1.845-1.634-2.083-1.129l-0.97,2.211l-0.362-0.575c-0.052-0.083-0.132-0.216-0.31-0.168l-3.092,1.157l0.125-0.683
	c0.023-0.106-0.02-0.126-0.143-0.161l-1.699-0.405l1.03-1.025c0.098-0.099,0.09-0.192,0.052-0.233l-0.547-0.599l1.869-0.367
	c0.184-0.046,0.193-0.231-0.016-0.307l-2.681-1.008l0.802-0.454c0.162-0.128,0.089-0.256,0.043-0.342l-0.997-1.625l1.903,0.101
	c0.098,0,0.246,0.003,0.279-0.202l0.018-0.92l2.165,1.875c0.166,0.147,0.323,0.051,0.276-0.131l-0.568-1.818l0.787,0.195
	c0.052,0.013,0.139-0.023,0.179-0.157l0.41-1.394l1.166,1.3c0.09,0.091,0.129,0.121,0.209,0.048l0.54-0.435l0.459,3.268
	c0.043,0.179,0.199,0.188,0.296,0.192l0.679,0.045l-1.479,1.907c-0.102,0.137-0.085,0.215,0.036,0.28
	c0.577,0.217,1.152,0.512,1.721,0.894c0.64-4.347,1.146-8.589-1.531-10.214c-0.681-0.319-1.286-0.282-1.814,0.375L8.002,14.64
	l-0.251-1.335c-0.051-0.142-0.135-0.371-0.422-0.353l-5.083,0.828l0.399-1.008c0.069-0.155,0.008-0.198-0.17-0.29L0,11.345
	l1.89-1.254C2.068,9.969,2.084,9.823,2.039,9.75L1.386,8.667l2.973,0.008c0.295-0.014,0.363-0.294,0.068-0.475l-3.794-2.36
	l1.363-0.45c0.29-0.146,0.216-0.364,0.17-0.511L1.139,2.09l2.882,0.735c0.15,0.029,0.376,0.079,0.49-0.223L4.816,1.2l2.74,3.528
	c0.21,0.277,0.482,0.178,0.465-0.117L7.706,1.655L8.85,2.193C8.929,2.231,9.07,2.201,9.172,2.009L10.226,0l1.388,2.345
	c0.109,0.168,0.159,0.224,0.307,0.137l0.96-0.501l-0.601,5.45c0.01,0.287,0.248,0.346,0.394,0.383l1.025,0.276l-2.756,2.573
	c2.178,0.652,3.145,2.074,3.554,3.909c0.392-0.38,0.824-0.68,1.29-0.92c0.112-0.083,0.117-0.163-0.004-0.288l-1.763-1.708
	l0.678-0.143c0.097-0.018,0.253-0.048,0.27-0.235l-0.006-3.355l0.606,0.361c0.093,0.061,0.128,0.026,0.205-0.079L16.76,6.73
	l0.611,1.345c0.061,0.129,0.152,0.153,0.203,0.132l0.765-0.309l-0.312,1.912c-0.022,0.191,0.15,0.265,0.297,0.092l1.911-2.195
	l0.149,0.924c0.063,0.2,0.211,0.176,0.31,0.162l1.901-0.373l-0.771,1.778c-0.034,0.093-0.09,0.234,0.093,0.338l0.87,0.343
	l-2.554,1.397c-0.199,0.107-0.164,0.292,0.027,0.312l1.934,0.103l-0.463,0.68c-0.033,0.046-0.028,0.141,0.084,0.227L23,14.484
	l-1.653,0.65c-0.118,0.052-0.159,0.079-0.119,0.183l0.223,0.669l-3.277-0.723c-0.186-0.023-0.249,0.123-0.286,0.214l-0.285,0.63
	l-1.292-2.086c-0.096-0.146-0.175-0.157-0.279-0.064c-0.531,0.341-1.002,0.768-1.413,1.278
	C15.235,19.421,13.611,28.213,16.264,32.231z"/>
<path fill-rule="evenodd" clip-rule="evenodd" fill="#993333" d="M6.971,33.586c5.112-3.185,9.171,1.678,15.253-1.387
	C16.409,33.275,11.743,28.216,6.971,33.586z"/>
</svg>
